<?xml version="1.0" encoding="utf-8" standalone="no"?>
<!DOCTYPE svg PUBLIC "-//W3C//DTD SVG 1.1//EN"
  "http://www.w3.org/Graphics/SVG/1.1/DTD/svg11.dtd">
<!-- Created with matplotlib (http://matplotlib.org/) -->
<svg height="345pt" version="1.1" viewBox="0 0 460 345" width="460pt" xmlns="http://www.w3.org/2000/svg" xmlns:xlink="http://www.w3.org/1999/xlink">
 <defs>
  <style type="text/css">
*{stroke-linecap:butt;stroke-linejoin:round;}
  </style>
 </defs>
 <g id="figure_1">
  <g id="patch_1">
   <path d="M 0 345.6
L 460.8 345.6
L 460.8 0
L 0 0
z
" style="fill:none;"/>
  </g>
  <g id="axes_1">
   <g id="line2d_1">
    <path clip-path="url(#pefb1addaaa)" d="M 101.608333 125.675902
L 108.654082 123.056391
L 115.69983 120.491478
L 122.745578 118.035193
L 129.791327 115.740435
L 136.837075 113.658425
L 143.882823 111.838168
L 150.928571 110.325948
L 157.97432 109.164843
L 165.020068 108.394279
L 172.065816 108.049618
L 179.111565 108.161793
L 186.157313 108.756983
L 193.203061 109.856342
L 200.24881 111.47578
L 207.294558 113.625797
L 214.340306 116.31137
L 221.386054 119.531908
L 228.431803 123.281253
L 235.477551 127.547745
L 242.523299 132.314346
L 249.569048 137.558814
L 256.614796 143.253935
L 263.660544 149.367808
L 270.706293 155.864174
L 277.752041 162.702797
L 284.797789 169.839878
L 291.843537 177.228515
L 298.889286 184.819188
L 305.935034 192.560276
L 312.980782 200.398592
L 320.026531 208.279938
L 327.072279 216.149668
L 334.118027 223.953258
L 341.163776 231.636872
L 348.209524 239.14792
L 355.255272 246.43561
L 362.30102 253.451472
L 369.346769 260.149864
L 376.392517 266.488447
L 383.438265 272.428625
L 390.484014 277.935949
L 397.529762 282.980468
L 404.57551 287.537051
L 411.621259 291.585641
L 418.667007 295.111464
L 425.712755 298.105188
L 432.758503 300.563014
L 439.804252 302.486719
L 446.85 303.883636
" style="fill:none;stroke:#4c72b0;stroke-linecap:square;stroke-width:5;"/>
   </g>
   <g id="line2d_2">
    <path clip-path="url(#pefb1addaaa)" d="M 101.608333 125.675902
L 108.654082 121.742076
L 115.69983 117.862848
L 122.745578 114.092248
L 129.791327 110.483176
L 136.837075 107.086851
L 143.882823 103.952279
L 150.928571 101.125744
L 157.97432 98.650324
L 165.020068 96.565445
L 172.065816 94.906469
L 179.111565 93.704329
L 186.157313 92.985204
L 193.203061 92.770249
L 200.24881 93.075372
L 207.294558 93.911073
L 214.340306 95.282332
L 221.386054 97.188555
L 228.431803 99.623585
L 235.477551 102.575763
L 242.523299 106.028049
L 249.569048 109.958202
L 256.614796 114.339008
L 263.660544 119.138565
L 270.706293 124.320617
L 277.752041 129.844924
L 284.797789 135.667691
L 291.843537 141.742013
L 298.889286 148.018371
L 305.935034 154.445144
L 312.980782 160.969145
L 320.026531 167.536176
L 327.072279 174.091592
L 334.118027 180.580867
L 341.163776 186.950166
L 348.209524 193.146899
L 355.255272 199.120274
L 362.30102 204.821821
L 369.346769 210.205898
L 376.392517 215.230166
L 383.438265 219.85603
L 390.484014 224.049038
L 397.529762 227.779243
L 404.57551 231.021511
L 411.621259 233.755786
L 418.667007 235.967294
L 425.712755 237.646703
L 432.758503 238.790214
L 439.804252 239.399604
L 446.85 239.482207
" style="fill:none;stroke:#55a868;stroke-linecap:square;stroke-width:5;"/>
   </g>
   <g id="line2d_3">
    <path clip-path="url(#pefb1addaaa)" d="M 101.608333 125.675902
L 108.654082 120.427761
L 115.69983 115.234218
L 122.745578 110.149303
L 129.791327 105.225916
L 136.837075 100.515276
L 143.882823 96.06639
L 150.928571 91.92554
L 157.97432 88.135805
L 165.020068 84.736611
L 172.065816 81.76332
L 179.111565 79.246865
L 186.157313 77.213425
L 193.203061 75.684155
L 200.24881 74.674964
L 207.294558 74.19635
L 214.340306 74.253294
L 221.386054 74.845202
L 228.431803 75.965917
L 235.477551 77.60378
L 242.523299 79.741751
L 249.569048 82.357589
L 256.614796 85.42408
L 263.660544 88.909323
L 270.706293 92.777059
L 277.752041 96.987052
L 284.797789 101.495504
L 291.843537 106.255511
L 298.889286 111.217555
L 305.935034 116.330012
L 312.980782 121.539698
L 320.026531 126.792415
L 327.072279 132.033515
L 334.118027 137.208476
L 341.163776 142.26346
L 348.209524 147.145878
L 355.255272 151.804938
L 362.30102 156.19217
L 369.346769 160.261932
L 376.392517 163.971886
L 383.438265 167.283434
L 390.484014 170.162128
L 397.529762 172.578018
L 404.57551 174.505971
L 411.621259 175.925931
L 418.667007 176.823125
L 425.712755 177.188219
L 432.758503 177.017415
L 439.804252 176.31249
L 446.85 175.080777
" style="fill:none;stroke:#c44e52;stroke-linecap:square;stroke-width:5;"/>
   </g>
   <g id="line2d_4">
    <path clip-path="url(#pefb1addaaa)" d="M 101.608333 125.675902
L 108.654082 119.113446
L 115.69983 112.605588
L 122.745578 106.206359
L 129.791327 99.968657
L 136.837075 93.943702
L 143.882823 88.1805
L 150.928571 82.725336
L 157.97432 77.621286
L 165.020068 72.907777
L 172.065816 68.620171
L 179.111565 64.789401
L 186.157313 61.441647
L 193.203061 58.598061
L 200.24881 56.274555
L 207.294558 54.481627
L 214.340306 53.224255
L 221.386054 52.501849
L 228.431803 52.308249
L 235.477551 52.631797
L 242.523299 53.455453
L 249.569048 54.756976
L 256.614796 56.509153
L 263.660544 58.680081
L 270.706293 61.233502
L 277.752041 64.12918
L 284.797789 67.323317
L 291.843537 70.769009
L 298.889286 74.416738
L 305.935034 78.214881
L 312.980782 82.110252
L 320.026531 86.048653
L 327.072279 89.975439
L 334.118027 93.836085
L 341.163776 97.576753
L 348.209524 101.144857
L 355.255272 104.489602
L 362.30102 107.562519
L 369.346769 110.317966
L 376.392517 112.713605
L 383.438265 114.710839
L 390.484014 116.275217
L 397.529762 117.376792
L 404.57551 117.990431
L 411.621259 118.096076
L 418.667007 117.678955
L 425.712755 116.729734
L 432.758503 115.244615
L 439.804252 113.225375
L 446.85 110.679348
" style="fill:none;stroke:#8172b2;stroke-linecap:square;stroke-width:5;"/>
   </g>
   <g id="line2d_5">
    <path clip-path="url(#pefb1addaaa)" d="M 101.608333 125.675902
L 108.654082 117.799131
L 115.69983 109.976959
L 122.745578 102.263414
L 129.791327 94.711397
L 136.837075 87.372127
L 143.882823 80.294611
L 150.928571 73.525131
L 157.97432 67.106767
L 165.020068 61.078943
L 172.065816 55.477022
L 179.111565 50.331938
L 186.157313 45.669868
L 193.203061 41.511968
L 200.24881 37.874147
L 207.294558 34.766903
L 214.340306 32.195217
L 221.386054 30.158496
L 228.431803 28.650581
L 235.477551 27.659814
L 242.523299 27.169155
L 249.569048 27.156364
L 256.614796 27.594225
L 263.660544 28.450838
L 270.706293 29.689945
L 277.752041 31.271308
L 284.797789 33.15113
L 291.843537 35.282507
L 298.889286 37.615921
L 305.935034 40.099749
L 312.980782 42.680805
L 320.026531 45.304892
L 327.072279 47.917362
L 334.118027 50.463693
L 341.163776 52.890047
L 348.209524 55.143836
L 355.255272 57.174266
L 362.30102 58.932868
L 369.346769 60.374001
L 376.392517 61.455324
L 383.438265 62.138243
L 390.484014 62.388307
L 397.529762 62.175567
L 404.57551 61.474891
L 411.621259 60.266221
L 418.667007 58.534785
L 425.712755 56.271249
L 432.758503 53.471815
L 439.804252 50.138261
L 446.85 46.277918
" style="fill:none;stroke:#ccb974;stroke-linecap:square;stroke-width:5;"/>
   </g>
   <g id="line2d_6">
    <path clip-path="url(#pefb1addaaa)" d="M 32.56 169.02945
L 33.96915 168.452359
L 35.378299 167.857453
L 36.787449 167.24498
L 38.196599 166.615194
L 39.605748 165.968357
L 41.014898 165.30474
L 42.424048 164.624617
L 43.833197 163.928274
L 45.242347 163.215999
L 46.651497 162.48809
L 48.060646 161.744849
L 49.469796 160.986587
L 50.878946 160.213618
L 52.288095 159.426265
L 53.697245 158.624855
L 55.106395 157.809723
L 56.515544 156.981208
L 57.924694 156.139655
L 59.333844 155.285415
L 60.742993 154.418842
L 62.152143 153.540299
L 63.561293 152.650151
L 64.970442 151.748769
L 66.379592 150.836528
L 67.788741 149.913808
L 69.197891 148.980994
L 70.607041 148.038473
L 72.01619 147.086639
L 73.42534 146.125888
L 74.83449 145.15662
L 76.243639 144.179239
L 77.652789 143.194151
L 79.061939 142.201767
L 80.471088 141.202501
L 81.880238 140.196768
L 83.289388 139.184988
L 84.698537 138.167581
L 86.107687 137.144972
L 87.516837 136.117586
L 88.925986 135.085851
L 90.335136 134.050198
L 91.744286 133.011056
L 93.153435 131.96886
L 94.562585 130.924043
L 95.971735 129.87704
L 97.380884 128.828288
L 98.790034 127.778222
L 100.199184 126.727281
L 101.608333 125.675902
" style="fill:none;stroke:#64b5cd;stroke-linecap:square;stroke-width:5;"/>
   </g>
  </g>
 </g>
 <defs>
  <clipPath id="pefb1addaaa">
   <rect height="304.4" width="414.29" x="32.56" y="13.32"/>
  </clipPath>
 </defs>
</svg>
